<mxfile host="app.diagrams.net" modified="2022-07-06T16:42:04.898Z" agent="5.0 (Macintosh; Intel Mac OS X 10_15_7) AppleWebKit/605.1.15 (KHTML, like Gecko) Version/15.5 Safari/605.1.15" etag="OVKj8eS0X2jibLT6jmLI" version="20.0.4" type="github">
  <diagram id="lso4CgWFJm9PFkCe8dIS" name="Page-1">
    <mxGraphModel dx="1405" dy="1030" grid="1" gridSize="10" guides="1" tooltips="1" connect="1" arrows="1" fold="1" page="1" pageScale="1" pageWidth="850" pageHeight="1100" math="0" shadow="0">
      <root>
        <mxCell id="0" />
        <mxCell id="1" parent="0" />
        <mxCell id="TjnUEet7D5vF7Cb2XcUt-1" value="" style="fillColor=none;strokeColor=none;pointerEvents=0;fontStyle=0;html=1;whiteSpace=wrap;container=1;collapsible=0;childLayout=stackLayout;resizeParent=1;dropTarget=0;fontSize=13;spacing=0;strokeOpacity=100;rounded=1;absoluteArcSize=1;arcSize=9;strokeWidth=0.8;" vertex="1" parent="1">
          <mxGeometry x="60" y="59" width="1200" height="900" as="geometry" />
        </mxCell>
        <mxCell id="TjnUEet7D5vF7Cb2XcUt-2" value="Outside Organizations" style="swimlane;html=1;whiteSpace=wrap;connectable=0;startSize=30;dropTarget=0;rounded=0;spacing=0;strokeColor=#3a414a;strokeOpacity=100;strokeWidth=0.8;container=1;pointerEvents=0;collapsible=0;recursiveResize=0;fontSize=16.7;fontColor=#3a414a;fontStyle=1;" vertex="1" parent="TjnUEet7D5vF7Cb2XcUt-1">
          <mxGeometry width="240" height="900" as="geometry" />
        </mxCell>
        <mxCell id="TjnUEet7D5vF7Cb2XcUt-3" value="Packages/Libraries" style="swimlane;html=1;whiteSpace=wrap;connectable=0;startSize=30;dropTarget=0;rounded=0;spacing=0;strokeColor=#3a414a;strokeOpacity=100;strokeWidth=0.8;container=1;pointerEvents=0;collapsible=0;recursiveResize=0;fontSize=16.7;fontColor=#3a414a;fontStyle=1;" vertex="1" parent="TjnUEet7D5vF7Cb2XcUt-1">
          <mxGeometry x="240" width="240" height="900" as="geometry" />
        </mxCell>
        <mxCell id="TjnUEet7D5vF7Cb2XcUt-4" value="" style="swimlane;html=1;whiteSpace=wrap;connectable=0;fontStyle=0;startSize=30;dropTarget=0;rounded=0;spacing=0;strokeColor=#3a414a;strokeOpacity=100;strokeWidth=0.8;container=1;pointerEvents=0;collapsible=0;recursiveResize=0;fontSize=13;" vertex="1" parent="TjnUEet7D5vF7Cb2XcUt-1">
          <mxGeometry x="480" width="240" height="900" as="geometry" />
        </mxCell>
        <mxCell id="TjnUEet7D5vF7Cb2XcUt-5" value="Mobile App Team" style="swimlane;html=1;whiteSpace=wrap;connectable=0;startSize=30;dropTarget=0;rounded=0;spacing=0;strokeColor=#3a414a;strokeOpacity=100;strokeWidth=0.8;container=1;pointerEvents=0;collapsible=0;recursiveResize=0;fontSize=16.7;fontColor=#3a414a;fontStyle=1;" vertex="1" parent="TjnUEet7D5vF7Cb2XcUt-1">
          <mxGeometry x="720" width="240" height="900" as="geometry" />
        </mxCell>
        <mxCell id="TjnUEet7D5vF7Cb2XcUt-6" value="Cox Auto Inc" style="swimlane;html=1;whiteSpace=wrap;connectable=0;startSize=30;dropTarget=0;rounded=0;spacing=0;strokeColor=#3a414a;strokeOpacity=100;strokeWidth=0.8;container=1;pointerEvents=0;collapsible=0;recursiveResize=0;fontSize=16.7;fontColor=#3a414a;fontStyle=1;" vertex="1" parent="TjnUEet7D5vF7Cb2XcUt-1">
          <mxGeometry x="960" width="240" height="900" as="geometry" />
        </mxCell>
        <UserObject label="Content API " lucidchartObjectId=".fmv5RluoTuv" id="TjnUEet7D5vF7Cb2XcUt-7">
          <mxCell style="html=1;overflow=block;blockSpacing=1;whiteSpace=wrap;shape=mxgraph.aws4.resourceIcon;resIcon=mxgraph.aws4.api_gateway;labelPosition=center;verticalLabelPosition=bottom;align=center;verticalAlign=top;strokeColor=#ffffff;pointerEvents=1;fontSize=16.7;fontColor=#3a414a;spacing=0;strokeOpacity=100;rounded=1;absoluteArcSize=1;arcSize=9;fillColor=#693cc5;strokeWidth=0.8;" vertex="1" parent="1">
            <mxGeometry x="855" y="120" width="90" height="90" as="geometry" />
          </mxCell>
        </UserObject>
        <UserObject label="Analytics Mapping JSON" lucidchartObjectId="DimvoKKKTxXg" id="TjnUEet7D5vF7Cb2XcUt-8">
          <mxCell style="html=1;overflow=block;blockSpacing=1;whiteSpace=wrap;shape=mxgraph.aws4.resourceIcon;resIcon=mxgraph.aws4.s3;labelPosition=center;verticalLabelPosition=bottom;align=center;verticalAlign=top;strokeColor=#ffffff;pointerEvents=1;fontSize=16.7;fontColor=#3a414a;spacing=0;strokeOpacity=100;rounded=1;absoluteArcSize=1;arcSize=9;fillColor=#3f8624;strokeWidth=0.8;" vertex="1" parent="1">
            <mxGeometry x="855" y="255" width="90" height="90" as="geometry" />
          </mxCell>
        </UserObject>
        <UserObject label="Personalization Engine (PE)" lucidchartObjectId="KjmvcUGW_26U" id="TjnUEet7D5vF7Cb2XcUt-9">
          <mxCell style="html=1;overflow=block;blockSpacing=1;whiteSpace=wrap;shape=mxgraph.aws4.resourceIcon;resIcon=mxgraph.aws4.api_gateway;labelPosition=center;verticalLabelPosition=bottom;align=center;verticalAlign=top;strokeColor=#ffffff;pointerEvents=1;fontSize=16.7;fontColor=#3a414a;spacing=0;strokeOpacity=100;rounded=1;absoluteArcSize=1;arcSize=9;fillColor=#693cc5;strokeWidth=0.8;" vertex="1" parent="1">
            <mxGeometry x="795" y="420" width="76" height="76" as="geometry" />
          </mxCell>
        </UserObject>
        <UserObject label="LSC" lucidchartObjectId="XkmvLAxRcnXm" id="TjnUEet7D5vF7Cb2XcUt-10">
          <mxCell style="html=1;overflow=block;blockSpacing=1;whiteSpace=wrap;shape=mxgraph.aws4.endpoint;labelPosition=center;verticalLabelPosition=bottom;align=center;verticalAlign=top;pointerEvents=1;fontSize=16.7;fontColor=#3a414a;spacing=0;strokeColor=#3a414a;strokeOpacity=100;rounded=1;absoluteArcSize=1;arcSize=9;fillColor=#693cc5;strokeWidth=0.8;" vertex="1" parent="1">
            <mxGeometry x="1035" y="480" width="60" height="60" as="geometry" />
          </mxCell>
        </UserObject>
        <UserObject label="MyATC/Account API" lucidchartObjectId="~kmvoqaPMX5t" id="TjnUEet7D5vF7Cb2XcUt-11">
          <mxCell style="html=1;overflow=block;blockSpacing=1;whiteSpace=wrap;shape=mxgraph.aws4.endpoint;labelPosition=center;verticalLabelPosition=bottom;align=center;verticalAlign=top;pointerEvents=1;fontSize=16.7;fontColor=#3a414a;spacing=0;strokeColor=#3a414a;strokeOpacity=100;rounded=1;absoluteArcSize=1;arcSize=9;fillColor=#693cc5;strokeWidth=0.8;" vertex="1" parent="1">
            <mxGeometry x="1170" y="480" width="60" height="60" as="geometry" />
          </mxCell>
        </UserObject>
        <UserObject label="MyWallet" lucidchartObjectId="LlmvwKtIt0MA" id="TjnUEet7D5vF7Cb2XcUt-12">
          <mxCell style="html=1;overflow=block;blockSpacing=1;whiteSpace=wrap;shape=mxgraph.aws4.endpoint;labelPosition=center;verticalLabelPosition=bottom;align=center;verticalAlign=top;pointerEvents=1;fontSize=16.7;fontColor=#3a414a;spacing=0;strokeColor=#3a414a;strokeOpacity=100;rounded=1;absoluteArcSize=1;arcSize=9;fillColor=#693cc5;strokeWidth=0.8;" vertex="1" parent="1">
            <mxGeometry x="1035" y="240" width="60" height="60" as="geometry" />
          </mxCell>
        </UserObject>
        <UserObject label="Sell Your Car" lucidchartObjectId="~lmv3SqlGQuj" id="TjnUEet7D5vF7Cb2XcUt-13">
          <mxCell style="html=1;overflow=block;blockSpacing=1;whiteSpace=wrap;shape=mxgraph.aws4.endpoint;labelPosition=center;verticalLabelPosition=bottom;align=center;verticalAlign=top;pointerEvents=1;fontSize=16.7;fontColor=#3a414a;spacing=0;strokeColor=#3a414a;strokeOpacity=100;rounded=1;absoluteArcSize=1;arcSize=9;fillColor=#693cc5;strokeWidth=0.8;" vertex="1" parent="1">
            <mxGeometry x="1170" y="240" width="60" height="60" as="geometry" />
          </mxCell>
        </UserObject>
        <UserObject label="Lead Forms" lucidchartObjectId="wmmvmR2HrtVt" id="TjnUEet7D5vF7Cb2XcUt-14">
          <mxCell style="html=1;overflow=block;blockSpacing=1;whiteSpace=wrap;shape=mxgraph.aws4.endpoint;labelPosition=center;verticalLabelPosition=bottom;align=center;verticalAlign=top;pointerEvents=1;fontSize=16.7;fontColor=#3a414a;spacing=0;strokeColor=#3a414a;strokeOpacity=100;rounded=1;absoluteArcSize=1;arcSize=9;fillColor=#693cc5;strokeWidth=0.8;" vertex="1" parent="1">
            <mxGeometry x="1035" y="360" width="60" height="60" as="geometry" />
          </mxCell>
        </UserObject>
        <mxCell id="TjnUEet7D5vF7Cb2XcUt-15" value="" style="html=1;overflow=block;blockSpacing=1;whiteSpace=wrap;strokeColor=none;fillColor=none;fontSize=16.7;fontColor=#3a414a;spacing=3.8;strokeOpacity=100;fillOpacity=100;rounded=1;absoluteArcSize=1;arcSize=9;strokeWidth=0.8;" vertex="1" parent="1">
          <mxGeometry x="1080" y="120" width="120" height="90" as="geometry" />
        </mxCell>
        <mxCell id="TjnUEet7D5vF7Cb2XcUt-16" value="" style="rounded=1;arcSize=3;part=1;strokeColor=#3a414a;fillColor=#fc9432;strokeOpacity=100;fillOpacity=100;strokeWidth=0.8;" vertex="1" parent="TjnUEet7D5vF7Cb2XcUt-15">
          <mxGeometry width="108" height="81" as="geometry" />
        </mxCell>
        <mxCell id="TjnUEet7D5vF7Cb2XcUt-17" value="Privacy Policy/Visitor Agreement" style="rounded=1;arcSize=3;part=1;strokeColor=#3a414a;fillColor=#fc9432;strokeOpacity=100;fillOpacity=100;strokeWidth=0.8;whiteSpace=wrap;fontSize=16.7;fontColor=#3a414a;spacing=3.8;" vertex="1" parent="TjnUEet7D5vF7Cb2XcUt-15">
          <mxGeometry x="12" y="9" width="108" height="81" as="geometry" />
        </mxCell>
        <UserObject label="Price Advisor" lucidchartObjectId="2qmvScqCUl5a" id="TjnUEet7D5vF7Cb2XcUt-18">
          <mxCell style="html=1;overflow=block;blockSpacing=1;whiteSpace=wrap;shape=mxgraph.aws4.endpoint;labelPosition=center;verticalLabelPosition=bottom;align=center;verticalAlign=top;pointerEvents=1;fontSize=16.7;fontColor=#3a414a;spacing=0;strokeColor=#3a414a;strokeOpacity=100;rounded=1;absoluteArcSize=1;arcSize=9;fillColor=#693cc5;strokeWidth=0.8;" vertex="1" parent="1">
            <mxGeometry x="1170" y="360" width="60" height="60" as="geometry" />
          </mxCell>
        </UserObject>
        <UserObject label="ipify" lucidchartObjectId="Hrmvxi0ydfHc" id="TjnUEet7D5vF7Cb2XcUt-19">
          <mxCell style="html=1;overflow=block;blockSpacing=1;whiteSpace=wrap;shape=mxgraph.aws4.resourceIcon;resIcon=mxgraph.aws4.api_gateway;labelPosition=center;verticalLabelPosition=bottom;align=center;verticalAlign=top;strokeColor=#ffffff;pointerEvents=1;fontSize=16.7;fontColor=#3a414a;spacing=0;strokeOpacity=100;rounded=1;absoluteArcSize=1;arcSize=9;fillColor=#693cc5;strokeWidth=0.8;" vertex="1" parent="1">
            <mxGeometry x="120" y="120" width="90" height="90" as="geometry" />
          </mxCell>
        </UserObject>
        <UserObject label="Forsee Survey" lucidchartObjectId="hsmvLFgor~CJ" id="TjnUEet7D5vF7Cb2XcUt-20">
          <mxCell style="html=1;overflow=block;blockSpacing=1;whiteSpace=wrap;shape=mxgraph.aws4.resourceIcon;resIcon=mxgraph.aws4.api_gateway;labelPosition=center;verticalLabelPosition=bottom;align=center;verticalAlign=top;strokeColor=#ffffff;pointerEvents=1;fontSize=16.7;fontColor=#3a414a;spacing=0;strokeOpacity=100;rounded=1;absoluteArcSize=1;arcSize=9;fillColor=#693cc5;strokeWidth=0.8;" vertex="1" parent="1">
            <mxGeometry x="121" y="270" width="90" height="90" as="geometry" />
          </mxCell>
        </UserObject>
        <UserObject label="Telemetrics" lucidchartObjectId="VsmvujOjy.Sm" id="TjnUEet7D5vF7Cb2XcUt-21">
          <mxCell style="html=1;overflow=block;blockSpacing=1;whiteSpace=wrap;shape=mxgraph.aws4.resourceIcon;resIcon=mxgraph.aws4.api_gateway;labelPosition=center;verticalLabelPosition=bottom;align=center;verticalAlign=top;strokeColor=#ffffff;pointerEvents=1;fontSize=16.7;fontColor=#3a414a;spacing=0;strokeOpacity=100;rounded=1;absoluteArcSize=1;arcSize=9;fillColor=#693cc5;strokeWidth=0.8;" vertex="1" parent="1">
            <mxGeometry x="121" y="420" width="90" height="90" as="geometry" />
          </mxCell>
        </UserObject>
        <UserObject label="AWS Lambda" lucidchartObjectId="eymvi0Obb9io" id="TjnUEet7D5vF7Cb2XcUt-22">
          <mxCell style="html=1;overflow=block;blockSpacing=1;whiteSpace=wrap;shape=mxgraph.aws4.resourceIcon;resIcon=mxgraph.aws4.lambda;verticalLabelPosition=bottom;align=center;verticalAlign=top;strokeColor=#ffffff;pointerEvents=1;fontSize=16.7;fontColor=#3a414a;spacing=0;strokeOpacity=100;rounded=1;absoluteArcSize=1;arcSize=9;fillColor=#d86613;strokeWidth=0.8;" vertex="1" parent="1">
            <mxGeometry x="930" y="420" width="76" height="76" as="geometry" />
          </mxCell>
        </UserObject>
        <UserObject label="AWS Lambda" lucidchartObjectId="rymvz6IShGE." id="TjnUEet7D5vF7Cb2XcUt-23">
          <mxCell style="html=1;overflow=block;blockSpacing=1;whiteSpace=wrap;shape=mxgraph.aws4.resourceIcon;resIcon=mxgraph.aws4.lambda;verticalLabelPosition=bottom;align=center;verticalAlign=top;strokeColor=#ffffff;pointerEvents=1;fontSize=16.7;fontColor=#3a414a;spacing=0;strokeOpacity=100;rounded=1;absoluteArcSize=1;arcSize=9;fillColor=#d86613;strokeWidth=0.8;" vertex="1" parent="1">
            <mxGeometry x="926" y="855" width="75" height="75" as="geometry" />
          </mxCell>
        </UserObject>
        <UserObject label="" lucidchartObjectId="5ymvKdKLoIm3" id="TjnUEet7D5vF7Cb2XcUt-24">
          <mxCell style="html=1;jettySize=18;whiteSpace=wrap;fontSize=13;strokeColor=#3a414a;strokeOpacity=100;strokeWidth=0.8;rounded=1;arcSize=12;edgeStyle=orthogonalEdgeStyle;startArrow=block;startFill=1;endArrow=block;endFill=1;exitX=1;exitY=0.5;exitPerimeter=0;entryX=0;entryY=0.5;entryPerimeter=0;" edge="1" parent="1" source="TjnUEet7D5vF7Cb2XcUt-9" target="TjnUEet7D5vF7Cb2XcUt-22">
            <mxGeometry width="100" height="100" relative="1" as="geometry">
              <Array as="points" />
            </mxGeometry>
          </mxCell>
        </UserObject>
        <UserObject label="" lucidchartObjectId="aAmvksiK6xPY" id="TjnUEet7D5vF7Cb2XcUt-25">
          <mxCell style="html=1;jettySize=18;whiteSpace=wrap;fontSize=13;strokeColor=#3a414a;strokeOpacity=100;strokeWidth=0.8;rounded=1;arcSize=12;edgeStyle=orthogonalEdgeStyle;startArrow=block;startFill=1;endArrow=block;endFill=1;exitX=0;exitY=0.5;exitPerimeter=0;entryX=1;entryY=0.5;entryPerimeter=0;" edge="1" parent="1" source="TjnUEet7D5vF7Cb2XcUt-9" target="TjnUEet7D5vF7Cb2XcUt-58">
            <mxGeometry width="100" height="100" relative="1" as="geometry">
              <Array as="points" />
            </mxGeometry>
          </mxCell>
        </UserObject>
        <UserObject label="" lucidchartObjectId="MAmvYKORUhHQ" id="TjnUEet7D5vF7Cb2XcUt-26">
          <mxCell style="html=1;jettySize=18;whiteSpace=wrap;fontSize=13;strokeColor=#3a414a;strokeOpacity=100;strokeWidth=0.8;rounded=1;arcSize=12;edgeStyle=orthogonalEdgeStyle;startArrow=none;endArrow=block;endFill=1;exitX=0;exitY=0.5;exitPerimeter=0;entryX=0.5;entryY=0;entryPerimeter=0;" edge="1" parent="1" source="TjnUEet7D5vF7Cb2XcUt-7" target="TjnUEet7D5vF7Cb2XcUt-58">
            <mxGeometry width="100" height="100" relative="1" as="geometry">
              <Array as="points" />
            </mxGeometry>
          </mxCell>
        </UserObject>
        <UserObject label="" lucidchartObjectId="UAmvxSsH8e7k" id="TjnUEet7D5vF7Cb2XcUt-27">
          <mxCell style="html=1;jettySize=18;whiteSpace=wrap;fontSize=13;strokeColor=#3a414a;strokeOpacity=100;strokeWidth=0.8;rounded=1;arcSize=12;edgeStyle=orthogonalEdgeStyle;startArrow=none;endArrow=block;endFill=1;exitX=0;exitY=0.5;exitPerimeter=0;entryX=0.5;entryY=0;entryPerimeter=0;" edge="1" parent="1" source="TjnUEet7D5vF7Cb2XcUt-8" target="TjnUEet7D5vF7Cb2XcUt-58">
            <mxGeometry width="100" height="100" relative="1" as="geometry">
              <Array as="points" />
            </mxGeometry>
          </mxCell>
        </UserObject>
        <UserObject label="Google Mobile Ads " lucidchartObjectId="xDmveIgozNp-" id="TjnUEet7D5vF7Cb2XcUt-28">
          <mxCell style="html=1;overflow=block;blockSpacing=1;whiteSpace=wrap;shape=mxgraph.aws4.ecs_service;verticalLabelPosition=bottom;align=center;verticalAlign=top;pointerEvents=1;fontSize=16.7;fontColor=#3a414a;spacing=0;strokeColor=#3a414a;strokeOpacity=100;rounded=1;absoluteArcSize=1;arcSize=9;fillColor=#d86613;strokeWidth=0.8;" vertex="1" parent="1">
            <mxGeometry x="379" y="600" width="49" height="60" as="geometry" />
          </mxCell>
        </UserObject>
        <mxCell id="TjnUEet7D5vF7Cb2XcUt-29" value="" style="group;dropTarget=0;pointerEvents=0;" vertex="1" parent="1">
          <mxGeometry x="315" y="105" width="65" height="157" as="geometry" />
        </mxCell>
        <mxCell id="TjnUEet7D5vF7Cb2XcUt-30" value="" style="shape=image;verticalLabelPosition=bottom;labelBackgroundColor=default;verticalAlign=top;aspect=fixed;imageAspect=0;image=data:image/svg+xml,PHN2ZyB2aWV3Qm94PSIwIDAgMSAxIiB4bWxucz0iaHR0cDovL3d3dy53My5vcmcvMjAwMC9zdmciPjxwYXRoIGQ9Ik0gMCAwLjgwNyBMIDAuMDA4IDAuNzk5IEwgMC40MDEgMC4yNTUgTCAwLjQwMiAwLjI1IEwgMC4yMjkgMC4wMTIgQyAwLjIxNCAtMC4wMDcgMC4xNzQgLTAuMDAyIDAuMTY5IDAuMDIgTCAwIDAuODA3IFogIiBmaWxsPSIjRkZDMjRBIiBzdHJva2U9IiMwMDAwMDAwMCIgc3Ryb2tlLXdpZHRoPSIwLjAxMTUzODQ2MTUzODQ2MTUzOSIvPjxwYXRoIGQ9Ik0gMC4wMDUgMC44MDEgTCAwLjAxMSAwLjc5MiBMIDAuNCAwLjI1NCBMIDAuMjI3IDAuMDE2IEMgMC4yMTMgLTAuMDA0IDAuMTc2IDAuMDAxIDAuMTcyIDAuMDIzIEwgMC4wMDUgMC44MDEgWiAiIGZpbGw9IiNGRkE3MTIiIHN0cm9rZT0iIzAwMDAwMDAwIiBzdHJva2Utd2lkdGg9IjAuMDExNTM4NDYxNTM4NDYxNTM5Ii8+PHBhdGggZD0iTSAwLjUyOSAwLjQyOSBMIDAuNjU4IDAuMzMzIEwgMC41MjkgMC4xNTMgQyAwLjUxNiAwLjEzNiAwLjQ4MiAwLjEzNiAwLjQ3IDAuMTUzIEwgMC40MDEgMC4yNDkgTCAwLjQwMSAwLjI1NyBMIDAuNTI5IDAuNDI5IFogIiBmaWxsPSIjRjRCRDYyIiBzdHJva2U9IiMwMDAwMDAwMCIgc3Ryb2tlLXdpZHRoPSIwLjAxMTUzODQ2MTUzODQ2MTUzOSIvPjxwYXRoIGQ9Ik0gMC41MjYgMC40MjUgTCAwLjY1MiAwLjMzMSBMIDAuNTI2IDAuMTU3IEMgMC41MTQgMC4xNDEgMC40ODUgMC4xMzkgMC40NzQgMC4xNTYgTCAwLjQwNCAwLjI1MyBMIDAuNDAyIDAuMjU4IEwgMC41MjYgMC40MjUgWiAiIGZpbGw9IiNGRkE1MEUiIHN0cm9rZT0iIzAwMDAwMDAwIiBzdHJva2Utd2lkdGg9IjAuMDExNTM4NDYxNTM4NDYxNTM5Ii8+PHBhdGggZD0iTSAwIDAuODA3IEwgMC4wMDQgMC44MDQgTCAwLjAxNyAwLjggTCAwLjUyMSAwLjQzNSBMIDAuNTI3IDAuNDIzIEwgMC40MDEgMC4yNDggTCAwIDAuODA3IFogIiBmaWxsPSIjRjY4MjBDIiBzdHJva2U9IiMwMDAwMDAwMCIgc3Ryb2tlLXdpZHRoPSIwLjAxMTUzODQ2MTUzODQ2MTUzOSIvPjxwYXRoIGQ9Ik0gMC41NDUgMC45OTEgTCAxIDAuODA2IEwgMC44NyAwLjIyMyBDIDAuODY2IDAuMjA1IDAuODM1IDAuMTk4IDAuODE3IDAuMjExIEwgMCAwLjgwNyBMIDAuNDUzIDAuOTkxIEMgMC40ODEgMS4wMDMgMC41MTYgMS4wMDMgMC41NDUgMC45OTEgIiBmaWxsPSIjRkRFMDY4IiBzdHJva2U9IiMwMDAwMDAwMCIgc3Ryb2tlLXdpZHRoPSIwLjAxMTUzODQ2MTUzODQ2MTUzOSIvPjxwYXRoIGQ9Ik0gMC45OTYgMC44MDUgTCAwLjg2NyAwLjIyNiBDIDAuODYzIDAuMjA4IDAuODM3IDAuMiAwLjgyIDAuMjEzIEwgMC4wMDUgMC44MDYgTCAwLjQ1MyAwLjk4OCBDIDAuNDgxIDEgMC41MTYgMSAwLjU0NCAwLjk4OCBMIDAuOTk2IDAuODA1IFogIiBmaWxsPSIjRkNDQTNGIiBzdHJva2U9IiMwMDAwMDAwMCIgc3Ryb2tlLXdpZHRoPSIwLjAxMTUzODQ2MTUzODQ2MTUzOSIvPjxwYXRoIGQ9Ik0gMC41NDUgMC45ODYgQyAwLjUxNiAwLjk5NyAwLjQ4MSAwLjk5NyAwLjQ1MyAwLjk4NiBMIDAuMDA0IDAuODA0IEwgMCAwLjgwNyBMIDAuNDUzIDAuOTkxIEMgMC40ODEgMS4wMDMgMC41MTYgMS4wMDMgMC41NDUgMC45OTEgTCAxIDAuODA2IEwgMC45OTkgMC44MDEgTCAwLjU0NSAwLjk4NiBaICIgZmlsbD0iI0VFQUIzNyIgc3Ryb2tlPSIjMDAwMDAwMDAiIHN0cm9rZS13aWR0aD0iMC4wMTE1Mzg0NjE1Mzg0NjE1MzkiLz48L3N2Zz4=;html=1;" vertex="1" parent="TjnUEet7D5vF7Cb2XcUt-29">
          <mxGeometry width="65" height="90" as="geometry" />
        </mxCell>
        <UserObject label="Remote Config&#xa;" lucidchartObjectId="tmnvff7e1XBc" id="TjnUEet7D5vF7Cb2XcUt-31">
          <mxCell style="html=1;overflow=block;blockSpacing=1;whiteSpace=wrap;fontSize=16.7;fontColor=#3a414a;spacing=3.8;strokeOpacity=0;fillOpacity=0;rounded=1;absoluteArcSize=1;arcSize=9;fillColor=#ffffff;strokeWidth=0.8;" vertex="1" parent="TjnUEet7D5vF7Cb2XcUt-29">
            <mxGeometry y="90" width="65" height="67" as="geometry" />
          </mxCell>
        </UserObject>
        <mxCell id="TjnUEet7D5vF7Cb2XcUt-32" value="" style="group;dropTarget=0;pointerEvents=0;" vertex="1" parent="1">
          <mxGeometry x="422" y="255" width="65" height="157" as="geometry" />
        </mxCell>
        <mxCell id="TjnUEet7D5vF7Cb2XcUt-33" value="" style="shape=image;verticalLabelPosition=bottom;labelBackgroundColor=default;verticalAlign=top;aspect=fixed;imageAspect=0;image=data:image/svg+xml,PHN2ZyB2aWV3Qm94PSIwIDAgMSAxIiB4bWxucz0iaHR0cDovL3d3dy53My5vcmcvMjAwMC9zdmciPjxwYXRoIGQ9Ik0gMCAwLjgwNyBMIDAuMDA4IDAuNzk5IEwgMC40MDEgMC4yNTUgTCAwLjQwMiAwLjI1IEwgMC4yMjkgMC4wMTIgQyAwLjIxNCAtMC4wMDcgMC4xNzQgLTAuMDAyIDAuMTY5IDAuMDIgTCAwIDAuODA3IFogIiBmaWxsPSIjRkZDMjRBIiBzdHJva2U9IiMwMDAwMDAwMCIgc3Ryb2tlLXdpZHRoPSIwLjAxMTUzODQ2MTUzODQ2MTUzOSIvPjxwYXRoIGQ9Ik0gMC4wMDUgMC44MDEgTCAwLjAxMSAwLjc5MiBMIDAuNCAwLjI1NCBMIDAuMjI3IDAuMDE2IEMgMC4yMTMgLTAuMDA0IDAuMTc2IDAuMDAxIDAuMTcyIDAuMDIzIEwgMC4wMDUgMC44MDEgWiAiIGZpbGw9IiNGRkE3MTIiIHN0cm9rZT0iIzAwMDAwMDAwIiBzdHJva2Utd2lkdGg9IjAuMDExNTM4NDYxNTM4NDYxNTM5Ii8+PHBhdGggZD0iTSAwLjUyOSAwLjQyOSBMIDAuNjU4IDAuMzMzIEwgMC41MjkgMC4xNTMgQyAwLjUxNiAwLjEzNiAwLjQ4MiAwLjEzNiAwLjQ3IDAuMTUzIEwgMC40MDEgMC4yNDkgTCAwLjQwMSAwLjI1NyBMIDAuNTI5IDAuNDI5IFogIiBmaWxsPSIjRjRCRDYyIiBzdHJva2U9IiMwMDAwMDAwMCIgc3Ryb2tlLXdpZHRoPSIwLjAxMTUzODQ2MTUzODQ2MTUzOSIvPjxwYXRoIGQ9Ik0gMC41MjYgMC40MjUgTCAwLjY1MiAwLjMzMSBMIDAuNTI2IDAuMTU3IEMgMC41MTQgMC4xNDEgMC40ODUgMC4xMzkgMC40NzQgMC4xNTYgTCAwLjQwNCAwLjI1MyBMIDAuNDAyIDAuMjU4IEwgMC41MjYgMC40MjUgWiAiIGZpbGw9IiNGRkE1MEUiIHN0cm9rZT0iIzAwMDAwMDAwIiBzdHJva2Utd2lkdGg9IjAuMDExNTM4NDYxNTM4NDYxNTM5Ii8+PHBhdGggZD0iTSAwIDAuODA3IEwgMC4wMDQgMC44MDQgTCAwLjAxNyAwLjggTCAwLjUyMSAwLjQzNSBMIDAuNTI3IDAuNDIzIEwgMC40MDEgMC4yNDggTCAwIDAuODA3IFogIiBmaWxsPSIjRjY4MjBDIiBzdHJva2U9IiMwMDAwMDAwMCIgc3Ryb2tlLXdpZHRoPSIwLjAxMTUzODQ2MTUzODQ2MTUzOSIvPjxwYXRoIGQ9Ik0gMC41NDUgMC45OTEgTCAxIDAuODA2IEwgMC44NyAwLjIyMyBDIDAuODY2IDAuMjA1IDAuODM1IDAuMTk4IDAuODE3IDAuMjExIEwgMCAwLjgwNyBMIDAuNDUzIDAuOTkxIEMgMC40ODEgMS4wMDMgMC41MTYgMS4wMDMgMC41NDUgMC45OTEgIiBmaWxsPSIjRkRFMDY4IiBzdHJva2U9IiMwMDAwMDAwMCIgc3Ryb2tlLXdpZHRoPSIwLjAxMTUzODQ2MTUzODQ2MTUzOSIvPjxwYXRoIGQ9Ik0gMC45OTYgMC44MDUgTCAwLjg2NyAwLjIyNiBDIDAuODYzIDAuMjA4IDAuODM3IDAuMiAwLjgyIDAuMjEzIEwgMC4wMDUgMC44MDYgTCAwLjQ1MyAwLjk4OCBDIDAuNDgxIDEgMC41MTYgMSAwLjU0NCAwLjk4OCBMIDAuOTk2IDAuODA1IFogIiBmaWxsPSIjRkNDQTNGIiBzdHJva2U9IiMwMDAwMDAwMCIgc3Ryb2tlLXdpZHRoPSIwLjAxMTUzODQ2MTUzODQ2MTUzOSIvPjxwYXRoIGQ9Ik0gMC41NDUgMC45ODYgQyAwLjUxNiAwLjk5NyAwLjQ4MSAwLjk5NyAwLjQ1MyAwLjk4NiBMIDAuMDA0IDAuODA0IEwgMCAwLjgwNyBMIDAuNDUzIDAuOTkxIEMgMC40ODEgMS4wMDMgMC41MTYgMS4wMDMgMC41NDUgMC45OTEgTCAxIDAuODA2IEwgMC45OTkgMC44MDEgTCAwLjU0NSAwLjk4NiBaICIgZmlsbD0iI0VFQUIzNyIgc3Ryb2tlPSIjMDAwMDAwMDAiIHN0cm9rZS13aWR0aD0iMC4wMTE1Mzg0NjE1Mzg0NjE1MzkiLz48L3N2Zz4=;html=1;" vertex="1" parent="TjnUEet7D5vF7Cb2XcUt-32">
          <mxGeometry width="65" height="90" as="geometry" />
        </mxCell>
        <UserObject label="Performance" lucidchartObjectId="Nnnvd~KGEa6A" id="TjnUEet7D5vF7Cb2XcUt-34">
          <mxCell style="html=1;overflow=block;blockSpacing=1;whiteSpace=wrap;fontSize=16.7;fontColor=#3a414a;spacing=3.8;strokeOpacity=0;fillOpacity=0;rounded=1;absoluteArcSize=1;arcSize=9;fillColor=#ffffff;strokeWidth=0.8;" vertex="1" parent="TjnUEet7D5vF7Cb2XcUt-32">
            <mxGeometry y="90" width="65" height="67" as="geometry" />
          </mxCell>
        </UserObject>
        <mxCell id="TjnUEet7D5vF7Cb2XcUt-35" value="" style="group;dropTarget=0;pointerEvents=0;" vertex="1" parent="1">
          <mxGeometry x="420" y="105" width="65" height="150" as="geometry" />
        </mxCell>
        <mxCell id="TjnUEet7D5vF7Cb2XcUt-36" value="" style="shape=image;verticalLabelPosition=bottom;labelBackgroundColor=default;verticalAlign=top;aspect=fixed;imageAspect=0;image=data:image/svg+xml,PHN2ZyB2aWV3Qm94PSIwIDAgMSAxIiB4bWxucz0iaHR0cDovL3d3dy53My5vcmcvMjAwMC9zdmciPjxwYXRoIGQ9Ik0gMCAwLjgwNyBMIDAuMDA4IDAuNzk5IEwgMC40MDEgMC4yNTUgTCAwLjQwMiAwLjI1IEwgMC4yMjkgMC4wMTIgQyAwLjIxNCAtMC4wMDcgMC4xNzQgLTAuMDAyIDAuMTY5IDAuMDIgTCAwIDAuODA3IFogIiBmaWxsPSIjRkZDMjRBIiBzdHJva2U9IiMwMDAwMDAwMCIgc3Ryb2tlLXdpZHRoPSIwLjAxMjA5Njc3NDE5MzU0ODM4NyIvPjxwYXRoIGQ9Ik0gMC4wMDUgMC44MDEgTCAwLjAxMSAwLjc5MiBMIDAuNCAwLjI1NCBMIDAuMjI3IDAuMDE2IEMgMC4yMTMgLTAuMDA0IDAuMTc2IDAuMDAxIDAuMTcyIDAuMDIzIEwgMC4wMDUgMC44MDEgWiAiIGZpbGw9IiNGRkE3MTIiIHN0cm9rZT0iIzAwMDAwMDAwIiBzdHJva2Utd2lkdGg9IjAuMDEyMDk2Nzc0MTkzNTQ4Mzg3Ii8+PHBhdGggZD0iTSAwLjUyOSAwLjQyOSBMIDAuNjU4IDAuMzMzIEwgMC41MjkgMC4xNTMgQyAwLjUxNiAwLjEzNiAwLjQ4MiAwLjEzNiAwLjQ3IDAuMTUzIEwgMC40MDEgMC4yNDkgTCAwLjQwMSAwLjI1NyBMIDAuNTI5IDAuNDI5IFogIiBmaWxsPSIjRjRCRDYyIiBzdHJva2U9IiMwMDAwMDAwMCIgc3Ryb2tlLXdpZHRoPSIwLjAxMjA5Njc3NDE5MzU0ODM4NyIvPjxwYXRoIGQ9Ik0gMC41MjYgMC40MjUgTCAwLjY1MiAwLjMzMSBMIDAuNTI2IDAuMTU3IEMgMC41MTQgMC4xNDEgMC40ODUgMC4xMzkgMC40NzQgMC4xNTYgTCAwLjQwNCAwLjI1MyBMIDAuNDAyIDAuMjU4IEwgMC41MjYgMC40MjUgWiAiIGZpbGw9IiNGRkE1MEUiIHN0cm9rZT0iIzAwMDAwMDAwIiBzdHJva2Utd2lkdGg9IjAuMDEyMDk2Nzc0MTkzNTQ4Mzg3Ii8+PHBhdGggZD0iTSAwIDAuODA3IEwgMC4wMDQgMC44MDQgTCAwLjAxNyAwLjggTCAwLjUyMSAwLjQzNSBMIDAuNTI3IDAuNDIzIEwgMC40MDEgMC4yNDggTCAwIDAuODA3IFogIiBmaWxsPSIjRjY4MjBDIiBzdHJva2U9IiMwMDAwMDAwMCIgc3Ryb2tlLXdpZHRoPSIwLjAxMjA5Njc3NDE5MzU0ODM4NyIvPjxwYXRoIGQ9Ik0gMC41NDUgMC45OTEgTCAxIDAuODA2IEwgMC44NyAwLjIyMyBDIDAuODY2IDAuMjA1IDAuODM1IDAuMTk4IDAuODE3IDAuMjExIEwgMCAwLjgwNyBMIDAuNDUzIDAuOTkxIEMgMC40ODEgMS4wMDMgMC41MTYgMS4wMDMgMC41NDUgMC45OTEgIiBmaWxsPSIjRkRFMDY4IiBzdHJva2U9IiMwMDAwMDAwMCIgc3Ryb2tlLXdpZHRoPSIwLjAxMjA5Njc3NDE5MzU0ODM4NyIvPjxwYXRoIGQ9Ik0gMC45OTYgMC44MDUgTCAwLjg2NyAwLjIyNiBDIDAuODYzIDAuMjA4IDAuODM3IDAuMiAwLjgyIDAuMjEzIEwgMC4wMDUgMC44MDYgTCAwLjQ1MyAwLjk4OCBDIDAuNDgxIDEgMC41MTYgMSAwLjU0NCAwLjk4OCBMIDAuOTk2IDAuODA1IFogIiBmaWxsPSIjRkNDQTNGIiBzdHJva2U9IiMwMDAwMDAwMCIgc3Ryb2tlLXdpZHRoPSIwLjAxMjA5Njc3NDE5MzU0ODM4NyIvPjxwYXRoIGQ9Ik0gMC41NDUgMC45ODYgQyAwLjUxNiAwLjk5NyAwLjQ4MSAwLjk5NyAwLjQ1MyAwLjk4NiBMIDAuMDA0IDAuODA0IEwgMCAwLjgwNyBMIDAuNDUzIDAuOTkxIEMgMC40ODEgMS4wMDMgMC41MTYgMS4wMDMgMC41NDUgMC45OTEgTCAxIDAuODA2IEwgMC45OTkgMC44MDEgTCAwLjU0NSAwLjk4NiBaICIgZmlsbD0iI0VFQUIzNyIgc3Ryb2tlPSIjMDAwMDAwMDAiIHN0cm9rZS13aWR0aD0iMC4wMTIwOTY3NzQxOTM1NDgzODciLz48L3N2Zz4=;html=1;" vertex="1" parent="TjnUEet7D5vF7Cb2XcUt-35">
          <mxGeometry x="2" width="62" height="86" as="geometry" />
        </mxCell>
        <UserObject label="Crashlytics" lucidchartObjectId="RnnvhSLeQqpa" id="TjnUEet7D5vF7Cb2XcUt-37">
          <mxCell style="html=1;overflow=block;blockSpacing=1;whiteSpace=wrap;fontSize=16.7;fontColor=#3a414a;spacing=3.8;strokeOpacity=0;fillOpacity=0;rounded=1;absoluteArcSize=1;arcSize=9;fillColor=#ffffff;strokeWidth=0.8;" vertex="1" parent="TjnUEet7D5vF7Cb2XcUt-35">
            <mxGeometry y="86" width="65" height="64" as="geometry" />
          </mxCell>
        </UserObject>
        <mxCell id="TjnUEet7D5vF7Cb2XcUt-38" value="" style="group;dropTarget=0;pointerEvents=0;" vertex="1" parent="1">
          <mxGeometry x="315" y="255" width="65" height="157" as="geometry" />
        </mxCell>
        <mxCell id="TjnUEet7D5vF7Cb2XcUt-39" value="" style="shape=image;verticalLabelPosition=bottom;labelBackgroundColor=default;verticalAlign=top;aspect=fixed;imageAspect=0;image=data:image/svg+xml,PHN2ZyB2aWV3Qm94PSIwIDAgMSAxIiB4bWxucz0iaHR0cDovL3d3dy53My5vcmcvMjAwMC9zdmciPjxwYXRoIGQ9Ik0gMCAwLjgwNyBMIDAuMDA4IDAuNzk5IEwgMC40MDEgMC4yNTUgTCAwLjQwMiAwLjI1IEwgMC4yMjkgMC4wMTIgQyAwLjIxNCAtMC4wMDcgMC4xNzQgLTAuMDAyIDAuMTY5IDAuMDIgTCAwIDAuODA3IFogIiBmaWxsPSIjRkZDMjRBIiBzdHJva2U9IiMwMDAwMDAwMCIgc3Ryb2tlLXdpZHRoPSIwLjAxMTUzODQ2MTUzODQ2MTUzOSIvPjxwYXRoIGQ9Ik0gMC4wMDUgMC44MDEgTCAwLjAxMSAwLjc5MiBMIDAuNCAwLjI1NCBMIDAuMjI3IDAuMDE2IEMgMC4yMTMgLTAuMDA0IDAuMTc2IDAuMDAxIDAuMTcyIDAuMDIzIEwgMC4wMDUgMC44MDEgWiAiIGZpbGw9IiNGRkE3MTIiIHN0cm9rZT0iIzAwMDAwMDAwIiBzdHJva2Utd2lkdGg9IjAuMDExNTM4NDYxNTM4NDYxNTM5Ii8+PHBhdGggZD0iTSAwLjUyOSAwLjQyOSBMIDAuNjU4IDAuMzMzIEwgMC41MjkgMC4xNTMgQyAwLjUxNiAwLjEzNiAwLjQ4MiAwLjEzNiAwLjQ3IDAuMTUzIEwgMC40MDEgMC4yNDkgTCAwLjQwMSAwLjI1NyBMIDAuNTI5IDAuNDI5IFogIiBmaWxsPSIjRjRCRDYyIiBzdHJva2U9IiMwMDAwMDAwMCIgc3Ryb2tlLXdpZHRoPSIwLjAxMTUzODQ2MTUzODQ2MTUzOSIvPjxwYXRoIGQ9Ik0gMC41MjYgMC40MjUgTCAwLjY1MiAwLjMzMSBMIDAuNTI2IDAuMTU3IEMgMC41MTQgMC4xNDEgMC40ODUgMC4xMzkgMC40NzQgMC4xNTYgTCAwLjQwNCAwLjI1MyBMIDAuNDAyIDAuMjU4IEwgMC41MjYgMC40MjUgWiAiIGZpbGw9IiNGRkE1MEUiIHN0cm9rZT0iIzAwMDAwMDAwIiBzdHJva2Utd2lkdGg9IjAuMDExNTM4NDYxNTM4NDYxNTM5Ii8+PHBhdGggZD0iTSAwIDAuODA3IEwgMC4wMDQgMC44MDQgTCAwLjAxNyAwLjggTCAwLjUyMSAwLjQzNSBMIDAuNTI3IDAuNDIzIEwgMC40MDEgMC4yNDggTCAwIDAuODA3IFogIiBmaWxsPSIjRjY4MjBDIiBzdHJva2U9IiMwMDAwMDAwMCIgc3Ryb2tlLXdpZHRoPSIwLjAxMTUzODQ2MTUzODQ2MTUzOSIvPjxwYXRoIGQ9Ik0gMC41NDUgMC45OTEgTCAxIDAuODA2IEwgMC44NyAwLjIyMyBDIDAuODY2IDAuMjA1IDAuODM1IDAuMTk4IDAuODE3IDAuMjExIEwgMCAwLjgwNyBMIDAuNDUzIDAuOTkxIEMgMC40ODEgMS4wMDMgMC41MTYgMS4wMDMgMC41NDUgMC45OTEgIiBmaWxsPSIjRkRFMDY4IiBzdHJva2U9IiMwMDAwMDAwMCIgc3Ryb2tlLXdpZHRoPSIwLjAxMTUzODQ2MTUzODQ2MTUzOSIvPjxwYXRoIGQ9Ik0gMC45OTYgMC44MDUgTCAwLjg2NyAwLjIyNiBDIDAuODYzIDAuMjA4IDAuODM3IDAuMiAwLjgyIDAuMjEzIEwgMC4wMDUgMC44MDYgTCAwLjQ1MyAwLjk4OCBDIDAuNDgxIDEgMC41MTYgMSAwLjU0NCAwLjk4OCBMIDAuOTk2IDAuODA1IFogIiBmaWxsPSIjRkNDQTNGIiBzdHJva2U9IiMwMDAwMDAwMCIgc3Ryb2tlLXdpZHRoPSIwLjAxMTUzODQ2MTUzODQ2MTUzOSIvPjxwYXRoIGQ9Ik0gMC41NDUgMC45ODYgQyAwLjUxNiAwLjk5NyAwLjQ4MSAwLjk5NyAwLjQ1MyAwLjk4NiBMIDAuMDA0IDAuODA0IEwgMCAwLjgwNyBMIDAuNDUzIDAuOTkxIEMgMC40ODEgMS4wMDMgMC41MTYgMS4wMDMgMC41NDUgMC45OTEgTCAxIDAuODA2IEwgMC45OTkgMC44MDEgTCAwLjU0NSAwLjk4NiBaICIgZmlsbD0iI0VFQUIzNyIgc3Ryb2tlPSIjMDAwMDAwMDAiIHN0cm9rZS13aWR0aD0iMC4wMTE1Mzg0NjE1Mzg0NjE1MzkiLz48L3N2Zz4=;html=1;" vertex="1" parent="TjnUEet7D5vF7Cb2XcUt-38">
          <mxGeometry width="65" height="90" as="geometry" />
        </mxCell>
        <UserObject label="Analytics" lucidchartObjectId="YpnvoWvX0dAp" id="TjnUEet7D5vF7Cb2XcUt-40">
          <mxCell style="html=1;overflow=block;blockSpacing=1;whiteSpace=wrap;fontSize=16.7;fontColor=#3a414a;spacing=3.8;strokeOpacity=0;fillOpacity=0;rounded=1;absoluteArcSize=1;arcSize=9;fillColor=#ffffff;strokeWidth=0.8;" vertex="1" parent="TjnUEet7D5vF7Cb2XcUt-38">
            <mxGeometry y="90" width="65" height="67" as="geometry" />
          </mxCell>
        </UserObject>
        <mxCell id="TjnUEet7D5vF7Cb2XcUt-41" value="" style="group;dropTarget=0;pointerEvents=0;" vertex="1" parent="1">
          <mxGeometry x="345" y="427" width="105" height="113" as="geometry" />
        </mxCell>
        <mxCell id="TjnUEet7D5vF7Cb2XcUt-42" value="" style="shape=image;verticalLabelPosition=bottom;labelBackgroundColor=default;verticalAlign=top;aspect=fixed;imageAspect=0;image=data:image/svg+xml,PHN2ZyB2aWV3Qm94PSIwIDAgMSAxIiB4bWxucz0iaHR0cDovL3d3dy53My5vcmcvMjAwMC9zdmciPjxwYXRoIGQ9Ik0gMCAwLjE1NiBDIDAgMC4wNyAwLjA3IDAgMC4xNTYgMCBMIDAuODQ0IDAgQyAwLjkzIDAgMSAwLjA3IDEgMC4xNTYgTCAxIDAuODQ0IEMgMSAwLjkzIDAuOTMgMSAwLjg0NCAxIEwgMC4xNTYgMSBDIDAuMDcgMSAwIDAuOTMgMCAwLjg0NCBMIDAgMC4xNTYgWiAiIGZpbGw9IiNGQTBGMDAiIHN0cm9rZT0iIzAwMDAwMDAwIiBzdHJva2Utd2lkdGg9IjAuMDAzMDA5OTUyOTEwOTU4OTA0NCIvPjxwYXRoIGQ9Ik0gMC4xNTYgMCBMIDAuODQ0IDAgQyAwLjkzIDAgMSAwLjA3IDEgMC4xNTYgTCAxIDAuODQ0IEMgMSAwLjkzIDAuOTMgMSAwLjg0NCAxIEwgMC4xNTYgMSBDIDAuMDcgMSAwIDAuOTMgMCAwLjg0NCBMIDAgMC4xNTYgQyAwIDAuMDcgMC4wNyAwIDAuMTU2IDAgWiAiIGZpbGw9IiNGQTBGMDAiIHN0cm9rZT0iIzAwMDAwMDAwIiBzdHJva2Utd2lkdGg9IjAuMDAzMDA5OTUyOTEwOTU4OTA0NCIvPjxwYXRoIGQ9Ik0gMC41NzkgMC4yMjYgTCAwLjgxOSAwLjc3NCBMIDAuNjQ5IDAuNzc0IEwgMC41IDAuNDM1IEwgMC40MSAwLjY0MiBMIDAuNTE2IDAuNjQyIEwgMC41NzQgMC43NzQgTCAwLjE4MSAwLjc3NCBMIDAuNDIxIDAuMjI2IEwgMC41NzkgMC4yMjYgWiAiIGZpbGw9IiNGRkZGRkYiIHN0cm9rZT0iIzAwMDAwMDAwIiBzdHJva2Utd2lkdGg9IjAuMDAzMDA5OTUyOTEwOTU4OTA0NCIvPjwvc3ZnPg==;html=1;" vertex="1" parent="TjnUEet7D5vF7Cb2XcUt-41">
          <mxGeometry x="12" width="79" height="73" as="geometry" />
        </mxCell>
        <UserObject label="Adobe Mobile" lucidchartObjectId="Sxnvto6NNTdR" id="TjnUEet7D5vF7Cb2XcUt-43">
          <mxCell style="html=1;overflow=block;blockSpacing=1;whiteSpace=wrap;fontSize=16.7;fontColor=#3a414a;spacing=3.8;strokeOpacity=0;fillOpacity=0;rounded=1;absoluteArcSize=1;arcSize=9;fillColor=#ffffff;strokeWidth=0.8;" vertex="1" parent="TjnUEet7D5vF7Cb2XcUt-41">
            <mxGeometry y="73" width="105" height="40" as="geometry" />
          </mxCell>
        </UserObject>
        <UserObject label="PixAll" lucidchartObjectId="0znv81CdMEdr" id="TjnUEet7D5vF7Cb2XcUt-44">
          <mxCell style="html=1;overflow=block;blockSpacing=1;whiteSpace=wrap;shape=mxgraph.aws4.endpoint;labelPosition=center;verticalLabelPosition=bottom;align=center;verticalAlign=top;pointerEvents=1;fontSize=16.7;fontColor=#3a414a;spacing=0;strokeColor=#3a414a;strokeOpacity=100;rounded=1;absoluteArcSize=1;arcSize=9;fillColor=#693cc5;strokeWidth=0.8;" vertex="1" parent="1">
            <mxGeometry x="1035" y="600" width="60" height="60" as="geometry" />
          </mxCell>
        </UserObject>
        <UserObject label="" lucidchartObjectId="_Dnvdl8gnyLJ" id="TjnUEet7D5vF7Cb2XcUt-45">
          <mxCell style="html=1;jettySize=18;whiteSpace=wrap;fontSize=13;strokeColor=#3a414a;strokeOpacity=100;strokeWidth=0.8;rounded=1;arcSize=12;edgeStyle=orthogonalEdgeStyle;startArrow=block;startFill=1;endArrow=none;exitX=1;exitY=0.806;exitPerimeter=0;entryX=0;entryY=0.5;entryPerimeter=0;" edge="1" parent="1" source="TjnUEet7D5vF7Cb2XcUt-36" target="TjnUEet7D5vF7Cb2XcUt-58">
            <mxGeometry width="100" height="100" relative="1" as="geometry">
              <Array as="points">
                <mxPoint x="578" y="174" />
                <mxPoint x="578" y="435" />
                <mxPoint x="599" y="435" />
                <mxPoint x="599" y="468" />
              </Array>
            </mxGeometry>
          </mxCell>
        </UserObject>
        <UserObject label="" lucidchartObjectId="PEnvyCnudBJy" id="TjnUEet7D5vF7Cb2XcUt-46">
          <mxCell style="html=1;jettySize=18;whiteSpace=wrap;fontSize=13;strokeColor=#3a414a;strokeOpacity=100;strokeWidth=0.8;rounded=1;arcSize=12;edgeStyle=orthogonalEdgeStyle;startArrow=block;startFill=1;endArrow=none;exitX=1;exitY=0.806;exitPerimeter=0;entryX=0;entryY=0.5;entryPerimeter=0;" edge="1" parent="1" source="TjnUEet7D5vF7Cb2XcUt-33" target="TjnUEet7D5vF7Cb2XcUt-58">
            <mxGeometry width="100" height="100" relative="1" as="geometry">
              <Array as="points">
                <mxPoint x="563" y="328" />
                <mxPoint x="563" y="450" />
                <mxPoint x="599" y="450" />
                <mxPoint x="599" y="468" />
              </Array>
            </mxGeometry>
          </mxCell>
        </UserObject>
        <UserObject label="" lucidchartObjectId="aFnvi-OlqCy9" id="TjnUEet7D5vF7Cb2XcUt-47">
          <mxCell style="html=1;jettySize=18;whiteSpace=wrap;fontSize=13;strokeColor=#3a414a;strokeOpacity=100;strokeWidth=0.8;rounded=1;arcSize=12;edgeStyle=orthogonalEdgeStyle;startArrow=block;startFill=1;endArrow=none;exitX=1;exitY=0.804;exitPerimeter=0;entryX=0;entryY=0.5;entryPerimeter=0;" edge="1" parent="1" source="TjnUEet7D5vF7Cb2XcUt-39" target="TjnUEet7D5vF7Cb2XcUt-58">
            <mxGeometry width="100" height="100" relative="1" as="geometry">
              <Array as="points">
                <mxPoint x="396" y="327" />
                <mxPoint x="396" y="360" />
                <mxPoint x="548" y="360" />
                <mxPoint x="548" y="458" />
                <mxPoint x="599" y="458" />
                <mxPoint x="599" y="468" />
              </Array>
            </mxGeometry>
          </mxCell>
        </UserObject>
        <UserObject label="" lucidchartObjectId="PGnv1GJrnT-D" id="TjnUEet7D5vF7Cb2XcUt-48">
          <mxCell style="html=1;jettySize=18;whiteSpace=wrap;fontSize=13;strokeColor=#3a414a;strokeOpacity=100;strokeWidth=0.8;rounded=1;arcSize=12;edgeStyle=orthogonalEdgeStyle;startArrow=block;startFill=1;endArrow=block;endFill=1;exitX=0.5;exitY=1;exitPerimeter=0;entryX=1;entryY=0.5;entryPerimeter=0;" edge="1" parent="1" source="TjnUEet7D5vF7Cb2XcUt-58" target="TjnUEet7D5vF7Cb2XcUt-28">
            <mxGeometry width="100" height="100" relative="1" as="geometry">
              <Array as="points" />
            </mxGeometry>
          </mxCell>
        </UserObject>
        <UserObject label="" lucidchartObjectId="5InvRARrBY7V" id="TjnUEet7D5vF7Cb2XcUt-49">
          <mxCell style="html=1;jettySize=18;whiteSpace=wrap;fontSize=13;strokeColor=#3a414a;strokeOpacity=100;strokeWidth=0.8;rounded=1;arcSize=12;edgeStyle=orthogonalEdgeStyle;startArrow=none;endArrow=block;endFill=1;exitX=0.5;exitY=0.142;exitPerimeter=0;entryX=0.514;entryY=0;entryPerimeter=0;" edge="1" parent="1" source="TjnUEet7D5vF7Cb2XcUt-30" target="TjnUEet7D5vF7Cb2XcUt-58">
            <mxGeometry width="100" height="100" relative="1" as="geometry">
              <Array as="points">
                <mxPoint x="347" y="105" />
                <mxPoint x="650" y="105" />
              </Array>
            </mxGeometry>
          </mxCell>
        </UserObject>
        <UserObject label="" lucidchartObjectId="yJnvVQNigkfG" id="TjnUEet7D5vF7Cb2XcUt-50">
          <mxCell style="html=1;jettySize=18;whiteSpace=wrap;fontSize=13;strokeColor=#3a414a;strokeOpacity=100;strokeWidth=0.8;rounded=1;arcSize=12;edgeStyle=orthogonalEdgeStyle;startArrow=none;endArrow=block;endFill=1;exitX=0;exitY=0.5;exitPerimeter=0;entryX=1;entryY=0.5;entryPerimeter=0;" edge="1" parent="1" source="TjnUEet7D5vF7Cb2XcUt-58" target="TjnUEet7D5vF7Cb2XcUt-42">
            <mxGeometry width="100" height="100" relative="1" as="geometry">
              <Array as="points" />
            </mxGeometry>
          </mxCell>
        </UserObject>
        <UserObject label="" lucidchartObjectId="6Jnv57zOV0s5" id="TjnUEet7D5vF7Cb2XcUt-51">
          <mxCell style="html=1;jettySize=18;whiteSpace=wrap;fontSize=13;strokeColor=#3a414a;strokeOpacity=100;strokeWidth=0.8;rounded=1;arcSize=12;edgeStyle=orthogonalEdgeStyle;startArrow=none;endArrow=block;endFill=1;exitX=0;exitY=0.5;exitPerimeter=0;entryX=0.5;entryY=1;entryPerimeter=0;" edge="1" parent="1" source="TjnUEet7D5vF7Cb2XcUt-58" target="TjnUEet7D5vF7Cb2XcUt-44">
            <mxGeometry width="100" height="100" relative="1" as="geometry">
              <Array as="points">
                <mxPoint x="570" y="468" />
                <mxPoint x="570" y="750" />
                <mxPoint x="1065" y="750" />
              </Array>
            </mxGeometry>
          </mxCell>
        </UserObject>
        <mxCell id="TjnUEet7D5vF7Cb2XcUt-52" value="output only" style="text;html=1;resizable=0;labelBackgroundColor=default;align=center;verticalAlign=middle;fontStyle=1;fontColor=#333333;fontSize=13.3;" vertex="1" parent="TjnUEet7D5vF7Cb2XcUt-51">
          <mxGeometry x="-0.9013090261119868" relative="1" as="geometry" />
        </mxCell>
        <UserObject label="" lucidchartObjectId="KQnv60Z8OMTc" id="TjnUEet7D5vF7Cb2XcUt-53">
          <mxCell style="html=1;jettySize=18;whiteSpace=wrap;fontSize=13;strokeColor=#3a414a;strokeOpacity=100;strokeWidth=0.8;rounded=1;arcSize=12;edgeStyle=orthogonalEdgeStyle;startArrow=none;endArrow=none;exitX=0.5;exitY=-0.004;exitPerimeter=0;entryX=0.5;entryY=0;entryPerimeter=0;" edge="1" parent="1" source="TjnUEet7D5vF7Cb2XcUt-15" target="TjnUEet7D5vF7Cb2XcUt-58">
            <mxGeometry width="100" height="100" relative="1" as="geometry">
              <Array as="points">
                <mxPoint x="1140" y="105" />
                <mxPoint x="663" y="105" />
              </Array>
            </mxGeometry>
          </mxCell>
        </UserObject>
        <mxCell id="TjnUEet7D5vF7Cb2XcUt-54" value="input only" style="text;html=1;resizable=0;labelBackgroundColor=default;align=center;verticalAlign=middle;fontStyle=1;fontColor=#333333;fontSize=13.3;" vertex="1" parent="TjnUEet7D5vF7Cb2XcUt-53">
          <mxGeometry x="0.8097313596716977" relative="1" as="geometry" />
        </mxCell>
        <UserObject label="" lucidchartObjectId="5TnvEn0_reBl" id="TjnUEet7D5vF7Cb2XcUt-55">
          <mxCell style="html=1;jettySize=18;whiteSpace=wrap;fontSize=13;strokeColor=#3a414a;strokeOpacity=100;strokeWidth=0.8;rounded=1;arcSize=12;edgeStyle=orthogonalEdgeStyle;startArrow=none;endArrow=block;endFill=1;exitX=0;exitY=0.5;exitPerimeter=0;entryX=0.5;entryY=1;entryPerimeter=0;" edge="1" parent="1" source="TjnUEet7D5vF7Cb2XcUt-58" target="TjnUEet7D5vF7Cb2XcUt-21">
            <mxGeometry width="100" height="100" relative="1" as="geometry">
              <Array as="points">
                <mxPoint x="599" y="468" />
                <mxPoint x="599" y="480" />
                <mxPoint x="585" y="480" />
                <mxPoint x="585" y="570" />
                <mxPoint x="166" y="570" />
              </Array>
            </mxGeometry>
          </mxCell>
        </UserObject>
        <UserObject label="" lucidchartObjectId="wUnvWfilLr_o" id="TjnUEet7D5vF7Cb2XcUt-56">
          <mxCell style="html=1;jettySize=18;whiteSpace=wrap;fontSize=13;strokeColor=#3a414a;strokeOpacity=100;strokeWidth=0.8;rounded=1;arcSize=12;edgeStyle=orthogonalEdgeStyle;startArrow=block;startFill=1;endArrow=block;endFill=1;exitX=0;exitY=0.5;exitPerimeter=0;entryX=0.5;entryY=1;entryPerimeter=0;" edge="1" parent="1" source="TjnUEet7D5vF7Cb2XcUt-19" target="TjnUEet7D5vF7Cb2XcUt-58">
            <mxGeometry width="100" height="100" relative="1" as="geometry">
              <Array as="points">
                <mxPoint x="75" y="165" />
                <mxPoint x="75" y="788" />
                <mxPoint x="663" y="788" />
              </Array>
            </mxGeometry>
          </mxCell>
        </UserObject>
        <UserObject label="" lucidchartObjectId="6UnvctU_ItF4" id="TjnUEet7D5vF7Cb2XcUt-57">
          <mxCell style="html=1;jettySize=18;whiteSpace=wrap;fontSize=13;strokeColor=#3a414a;strokeOpacity=100;strokeWidth=0.8;rounded=1;arcSize=12;edgeStyle=orthogonalEdgeStyle;startArrow=block;startFill=1;endArrow=block;endFill=1;exitX=0;exitY=0.5;exitPerimeter=0;entryX=0.5;entryY=1;entryPerimeter=0;" edge="1" parent="1" source="TjnUEet7D5vF7Cb2XcUt-20" target="TjnUEet7D5vF7Cb2XcUt-58">
            <mxGeometry width="100" height="100" relative="1" as="geometry">
              <Array as="points">
                <mxPoint x="91" y="315" />
                <mxPoint x="91" y="743" />
                <mxPoint x="663" y="743" />
              </Array>
            </mxGeometry>
          </mxCell>
        </UserObject>
        <UserObject label="Autotrader App" lucidchartObjectId="temvrnx9ztgn" id="TjnUEet7D5vF7Cb2XcUt-58">
          <mxCell style="html=1;overflow=block;blockSpacing=1;whiteSpace=wrap;shape=mxgraph.aws4.resourceIcon;resIcon=mxgraph.aws4.mobile;labelPosition=center;verticalLabelPosition=bottom;align=center;verticalAlign=top;pointerEvents=1;fontSize=16.7;fontColor=#3a414a;spacing=0;strokeColor=#ffffff;rounded=1;absoluteArcSize=1;arcSize=9;shadow=1;fillColor=#d6242d;strokeWidth=0.8;" vertex="1" parent="1">
            <mxGeometry x="615" y="420" width="97" height="97" as="geometry" />
          </mxCell>
        </UserObject>
        <UserObject label="" lucidchartObjectId="hABvH66RzDD9" id="TjnUEet7D5vF7Cb2XcUt-59">
          <mxCell style="html=1;jettySize=18;whiteSpace=wrap;fontSize=13;strokeColor=#3a414a;strokeOpacity=100;strokeWidth=0.8;rounded=1;arcSize=12;edgeStyle=orthogonalEdgeStyle;startArrow=block;startFill=1;endArrow=block;endFill=1;exitX=0;exitY=0.5;exitPerimeter=0;entryX=0.5;entryY=1;entryPerimeter=0;" edge="1" parent="1" source="TjnUEet7D5vF7Cb2XcUt-73" target="TjnUEet7D5vF7Cb2XcUt-58">
            <mxGeometry width="100" height="100" relative="1" as="geometry">
              <Array as="points" />
            </mxGeometry>
          </mxCell>
        </UserObject>
        <UserObject label="" lucidchartObjectId="c4nv0IZHKLtm" id="TjnUEet7D5vF7Cb2XcUt-60">
          <mxCell style="html=1;jettySize=18;whiteSpace=wrap;fontSize=13;strokeColor=#3a414a;strokeOpacity=100;strokeWidth=0.8;rounded=1;arcSize=12;edgeStyle=orthogonalEdgeStyle;startArrow=block;startFill=1;endArrow=block;endFill=1;exitX=1;exitY=0.5;exitPerimeter=0;entryX=1;entryY=0.5;entryPerimeter=0;" edge="1" parent="1" source="TjnUEet7D5vF7Cb2XcUt-12" target="TjnUEet7D5vF7Cb2XcUt-73">
            <mxGeometry width="100" height="100" relative="1" as="geometry">
              <Array as="points" />
            </mxGeometry>
          </mxCell>
        </UserObject>
        <UserObject label="" lucidchartObjectId="B4nvg9wLw~lA" id="TjnUEet7D5vF7Cb2XcUt-61">
          <mxCell style="html=1;jettySize=18;whiteSpace=wrap;fontSize=13;strokeColor=#3a414a;strokeOpacity=100;strokeWidth=0.8;rounded=1;arcSize=12;edgeStyle=orthogonalEdgeStyle;startArrow=block;startFill=1;endArrow=block;endFill=1;exitX=1;exitY=0.5;exitPerimeter=0;entryX=0.5;entryY=1;entryPerimeter=0;" edge="1" parent="1" source="TjnUEet7D5vF7Cb2XcUt-14" target="TjnUEet7D5vF7Cb2XcUt-58">
            <mxGeometry width="100" height="100" relative="1" as="geometry">
              <Array as="points">
                <mxPoint x="1118" y="390" />
                <mxPoint x="1118" y="765" />
                <mxPoint x="690" y="765" />
                <mxPoint x="690" y="533" />
                <mxPoint x="663" y="533" />
              </Array>
            </mxGeometry>
          </mxCell>
        </UserObject>
        <UserObject label="" lucidchartObjectId="U4nv8CdaCBCs" id="TjnUEet7D5vF7Cb2XcUt-62">
          <mxCell style="html=1;jettySize=18;whiteSpace=wrap;fontSize=13;strokeColor=#3a414a;strokeOpacity=100;strokeWidth=0.8;rounded=1;arcSize=12;edgeStyle=orthogonalEdgeStyle;startArrow=block;startFill=1;endArrow=block;endFill=1;exitX=1;exitY=0.5;exitPerimeter=0;entryX=0.5;entryY=1;entryPerimeter=0;" edge="1" parent="1" source="TjnUEet7D5vF7Cb2XcUt-10" target="TjnUEet7D5vF7Cb2XcUt-58">
            <mxGeometry width="100" height="100" relative="1" as="geometry">
              <Array as="points">
                <mxPoint x="1110" y="510" />
                <mxPoint x="1110" y="758" />
                <mxPoint x="698" y="758" />
                <mxPoint x="698" y="533" />
                <mxPoint x="663" y="533" />
              </Array>
            </mxGeometry>
          </mxCell>
        </UserObject>
        <UserObject label="" lucidchartObjectId="SaBvT8EbZrZ4" id="TjnUEet7D5vF7Cb2XcUt-63">
          <mxCell style="html=1;jettySize=18;whiteSpace=wrap;fontSize=13;strokeColor=#3a414a;strokeOpacity=100;strokeWidth=0.8;rounded=1;arcSize=12;edgeStyle=orthogonalEdgeStyle;startArrow=block;startFill=1;endArrow=block;endFill=1;exitX=0;exitY=0.5;exitPerimeter=0;entryX=0.5;entryY=1;entryPerimeter=0;" edge="1" parent="1" source="TjnUEet7D5vF7Cb2XcUt-13" target="TjnUEet7D5vF7Cb2XcUt-58">
            <mxGeometry width="100" height="100" relative="1" as="geometry">
              <Array as="points">
                <mxPoint x="1133" y="270" />
                <mxPoint x="1133" y="780" />
                <mxPoint x="679" y="780" />
                <mxPoint x="679" y="535" />
              </Array>
            </mxGeometry>
          </mxCell>
        </UserObject>
        <UserObject label="" lucidchartObjectId="HbBvlRhdgvJB" id="TjnUEet7D5vF7Cb2XcUt-64">
          <mxCell style="html=1;jettySize=18;whiteSpace=wrap;fontSize=13;strokeColor=#3a414a;strokeOpacity=100;strokeWidth=0.8;rounded=1;arcSize=12;edgeStyle=orthogonalEdgeStyle;startArrow=block;startFill=1;endArrow=block;endFill=1;exitX=0;exitY=0.5;exitPerimeter=0;entryX=0.5;entryY=1;entryPerimeter=0;" edge="1" parent="1" source="TjnUEet7D5vF7Cb2XcUt-18" target="TjnUEet7D5vF7Cb2XcUt-58">
            <mxGeometry width="100" height="100" relative="1" as="geometry">
              <Array as="points">
                <mxPoint x="1140" y="390" />
                <mxPoint x="1140" y="788" />
                <mxPoint x="675" y="788" />
                <mxPoint x="675" y="533" />
                <mxPoint x="663" y="533" />
              </Array>
            </mxGeometry>
          </mxCell>
        </UserObject>
        <UserObject label="" lucidchartObjectId="qcBvWrJ6fm4o" id="TjnUEet7D5vF7Cb2XcUt-65">
          <mxCell style="html=1;jettySize=18;whiteSpace=wrap;fontSize=13;strokeColor=#3a414a;strokeOpacity=100;strokeWidth=0.8;rounded=1;arcSize=12;edgeStyle=orthogonalEdgeStyle;startArrow=block;startFill=1;endArrow=block;endFill=1;exitX=0;exitY=0.5;exitPerimeter=0;entryX=0.5;entryY=1;entryPerimeter=0;" edge="1" parent="1" source="TjnUEet7D5vF7Cb2XcUt-11" target="TjnUEet7D5vF7Cb2XcUt-58">
            <mxGeometry width="100" height="100" relative="1" as="geometry">
              <Array as="points">
                <mxPoint x="1148" y="510" />
                <mxPoint x="1148" y="795" />
                <mxPoint x="668" y="795" />
                <mxPoint x="668" y="533" />
                <mxPoint x="663" y="533" />
              </Array>
            </mxGeometry>
          </mxCell>
        </UserObject>
        <UserObject label="Autotrader Mobile App Architecture" lucidchartObjectId="-rBv1deMGOph" id="TjnUEet7D5vF7Cb2XcUt-66">
          <mxCell style="html=1;overflow=block;blockSpacing=1;whiteSpace=wrap;fontSize=30;fontColor=#3a414a;fontStyle=1;spacing=3.8;strokeOpacity=0;fillOpacity=0;rounded=1;absoluteArcSize=1;arcSize=9;fillColor=#ffffff;strokeWidth=0.8;" vertex="1" parent="1">
            <mxGeometry x="394" y="15" width="533" height="36" as="geometry" />
          </mxCell>
        </UserObject>
        <UserObject label="Amazon Route 53" lucidchartObjectId="-wBvQ2dp5o5c" id="TjnUEet7D5vF7Cb2XcUt-67">
          <mxCell style="html=1;overflow=block;blockSpacing=1;whiteSpace=wrap;shape=mxgraph.aws4.resourceIcon;resIcon=mxgraph.aws4.route_53;labelPosition=center;verticalLabelPosition=bottom;align=center;verticalAlign=top;strokeColor=#ffffff;pointerEvents=1;fontSize=16.7;fontColor=#3a414a;spacing=0;strokeOpacity=100;rounded=1;absoluteArcSize=1;arcSize=9;fillColor=#693cc5;strokeWidth=0.8;" vertex="1" parent="1">
            <mxGeometry x="855" y="585" width="90" height="90" as="geometry" />
          </mxCell>
        </UserObject>
        <UserObject label="" lucidchartObjectId="wxBvV9wGSF9E" id="TjnUEet7D5vF7Cb2XcUt-68">
          <mxCell style="html=1;jettySize=18;whiteSpace=wrap;fontSize=13;strokeColor=#3a414a;strokeOpacity=100;strokeWidth=0.8;rounded=1;arcSize=12;edgeStyle=orthogonalEdgeStyle;startArrow=block;startFill=1;endArrow=block;endFill=1;exitX=0.5;exitY=1;exitPerimeter=0;entryX=0.5;entryY=0;entryPerimeter=0;" edge="1" parent="1" source="TjnUEet7D5vF7Cb2XcUt-67" target="TjnUEet7D5vF7Cb2XcUt-71">
            <mxGeometry width="100" height="100" relative="1" as="geometry">
              <Array as="points" />
            </mxGeometry>
          </mxCell>
        </UserObject>
        <UserObject label="" lucidchartObjectId="TxBvUHhuM.-S" id="TjnUEet7D5vF7Cb2XcUt-69">
          <mxCell style="html=1;jettySize=18;whiteSpace=wrap;fontSize=13;strokeColor=#3a414a;strokeOpacity=100;strokeWidth=0.8;rounded=1;arcSize=12;edgeStyle=orthogonalEdgeStyle;startArrow=block;startFill=1;endArrow=block;endFill=1;exitX=0;exitY=0.5;exitPerimeter=0;entryX=1;entryY=0.5;entryPerimeter=0;" edge="1" parent="1" source="TjnUEet7D5vF7Cb2XcUt-67" target="TjnUEet7D5vF7Cb2XcUt-58">
            <mxGeometry width="100" height="100" relative="1" as="geometry">
              <Array as="points" />
            </mxGeometry>
          </mxCell>
        </UserObject>
        <UserObject label="" lucidchartObjectId="zyBvKmXkdjHV" id="TjnUEet7D5vF7Cb2XcUt-70">
          <mxCell style="html=1;jettySize=18;whiteSpace=wrap;fontSize=13;strokeColor=#3a414a;strokeOpacity=100;strokeWidth=0.8;rounded=1;arcSize=12;edgeStyle=orthogonalEdgeStyle;startArrow=none;endArrow=block;endFill=1;exitX=0.5;exitY=1;exitPerimeter=0;entryX=0.5;entryY=0;entryPerimeter=0;" edge="1" parent="1" source="TjnUEet7D5vF7Cb2XcUt-71" target="TjnUEet7D5vF7Cb2XcUt-23">
            <mxGeometry width="100" height="100" relative="1" as="geometry">
              <Array as="points" />
            </mxGeometry>
          </mxCell>
        </UserObject>
        <UserObject label="Vehicle  Ref (east)" lucidchartObjectId="mkmv81GDKXJg" id="TjnUEet7D5vF7Cb2XcUt-71">
          <mxCell style="html=1;overflow=block;blockSpacing=1;whiteSpace=wrap;shape=mxgraph.aws4.resourceIcon;resIcon=mxgraph.aws4.api_gateway;labelPosition=center;verticalLabelPosition=bottom;align=center;verticalAlign=top;strokeColor=#ffffff;pointerEvents=1;fontSize=16.7;fontColor=#3a414a;spacing=0;strokeOpacity=100;rounded=1;absoluteArcSize=1;arcSize=9;fillColor=#693cc5;strokeWidth=0.8;" vertex="1" parent="1">
            <mxGeometry x="926" y="735" width="75" height="75" as="geometry" />
          </mxCell>
        </UserObject>
        <UserObject label="AWS Lambda" lucidchartObjectId="aABvLifWy8bM" id="TjnUEet7D5vF7Cb2XcUt-72">
          <mxCell style="html=1;overflow=block;blockSpacing=1;whiteSpace=wrap;shape=mxgraph.aws4.resourceIcon;resIcon=mxgraph.aws4.lambda;verticalLabelPosition=bottom;align=center;verticalAlign=top;strokeColor=#ffffff;pointerEvents=1;fontSize=16.7;fontColor=#3a414a;spacing=0;strokeOpacity=100;rounded=1;absoluteArcSize=1;arcSize=9;fillColor=#d86613;strokeWidth=0.8;" vertex="1" parent="1">
            <mxGeometry x="795" y="855" width="75" height="75" as="geometry" />
          </mxCell>
        </UserObject>
        <UserObject label="Vehicle  Ref (west)" lucidchartObjectId="aABvho3fJmOZ" id="TjnUEet7D5vF7Cb2XcUt-73">
          <mxCell style="html=1;overflow=block;blockSpacing=1;whiteSpace=wrap;shape=mxgraph.aws4.resourceIcon;resIcon=mxgraph.aws4.api_gateway;labelPosition=center;verticalLabelPosition=bottom;align=center;verticalAlign=top;strokeColor=#ffffff;pointerEvents=1;fontSize=16.7;fontColor=#3a414a;spacing=0;strokeOpacity=100;rounded=1;absoluteArcSize=1;arcSize=9;fillColor=#693cc5;strokeWidth=0.8;" vertex="1" parent="1">
            <mxGeometry x="795" y="735" width="75" height="75" as="geometry" />
          </mxCell>
        </UserObject>
        <UserObject label="" lucidchartObjectId="GABv.YaGdI5z" id="TjnUEet7D5vF7Cb2XcUt-74">
          <mxCell style="html=1;jettySize=18;whiteSpace=wrap;fontSize=13;strokeColor=#3a414a;strokeOpacity=100;strokeWidth=0.8;rounded=1;arcSize=12;edgeStyle=orthogonalEdgeStyle;startArrow=none;endArrow=block;endFill=1;exitX=0.5;exitY=1;exitPerimeter=0;entryX=0.5;entryY=0;entryPerimeter=0;" edge="1" parent="1" source="TjnUEet7D5vF7Cb2XcUt-67" target="TjnUEet7D5vF7Cb2XcUt-73">
            <mxGeometry width="100" height="100" relative="1" as="geometry">
              <Array as="points" />
            </mxGeometry>
          </mxCell>
        </UserObject>
        <UserObject label="" lucidchartObjectId="7ABvP.f2mC90" id="TjnUEet7D5vF7Cb2XcUt-75">
          <mxCell style="html=1;jettySize=18;whiteSpace=wrap;fontSize=13;strokeColor=#3a414a;strokeOpacity=100;strokeWidth=0.8;rounded=1;arcSize=12;edgeStyle=orthogonalEdgeStyle;startArrow=none;endArrow=block;endFill=1;exitX=0.5;exitY=1;exitPerimeter=0;entryX=0.5;entryY=0;entryPerimeter=0;" edge="1" parent="1" source="TjnUEet7D5vF7Cb2XcUt-73" target="TjnUEet7D5vF7Cb2XcUt-72">
            <mxGeometry width="100" height="100" relative="1" as="geometry">
              <Array as="points" />
            </mxGeometry>
          </mxCell>
        </UserObject>
      </root>
    </mxGraphModel>
  </diagram>
</mxfile>
